# xmcd
#
# Track frame offsets:
#	150
#	16045
#	37747
#	51577
#	61717
#	86095
#	106460
#	121437
#	144055
#	160262
#	177437
#	203610
#	214282
#	224895
#	238710
#	258840
#	270895
#
# Disc length: 3786 seconds
#
# Revision: 0
# Processed by: cddbd v1.5.1PL0 Copyright (c) Steve Scherf et al.
# Submitted via: dBpowerAMP V4.0
#
DISCID=ec0ec811
DTITLE=Little Toby Walker - Little Toby Walker
DYEAR=1900
DGENRE=Blues
TTITLE0=Take A Little Walk With Me
TTITLE1=Texas Tornado
TTITLE2=Who's Gonna Be Your Sweet Man Tonight?
TTITLE3=All Around Man
TTITLE4=Savannah Mama
TTITLE5=Kismet Rag
TTITLE6=Full Figured Woman
TTITLE7=Stack O' Lee
TTITLE8=Irish Fiddle Medley
TTITLE9=When She Wants Good Lovin'
TTITLE10=Monkey In The Pool Room
TTITLE11=Boogie Woogie Dance
TTITLE12=Born Blind
TTITLE13=The Lead's All Gone
TTITLE14=Sitting On Top Of The World
TTITLE15=I've Been Weeping
TTITLE16=Catfish Blues
EXTD=
EXTT0=
EXTT1=
EXTT2=
EXTT3=
EXTT4=
EXTT5=
EXTT6=
EXTT7=
EXTT8=
EXTT9=
EXTT10=
EXTT11=
EXTT12=
EXTT13=
EXTT14=
EXTT15=
EXTT16=
PLAYORDER=
